<?xml version="1.0" standalone="no"?><!DOCTYPE svg PUBLIC "-//W3C//DTD SVG 1.1//EN" "http://www.w3.org/Graphics/SVG/1.1/DTD/svg11.dtd"><svg t="1680949790056" class="icon" viewBox="0 0 1207 1024" version="1.1" xmlns="http://www.w3.org/2000/svg" p-id="3623" xmlns:xlink="http://www.w3.org/1999/xlink" width="235.7421875" height="200"><path d="M603.615154 1024c-137.426568 0-274.819894-0.897561-303.176174-2.65944-162.059632-10.172358-293.93462-145.338403-300.184304-307.763708a321.027666 321.027666 0 0 1 301.646996-333.128119 322.922517 322.922517 0 0 1-5.518339-59.405243A321.060909 321.060909 0 0 1 628.248218 0.182039c165.949064 5.451852 302.045912 139.620606 309.858017 305.469941a322.922517 322.922517 0 0 1-5.65131 77.456193 321.127395 321.127395 0 0 1-25.730083 638.26563c-28.35628 1.728636-165.716363 2.626197-303.109688 2.626197z m-282.565513-585.076827a262.054581 262.054581 0 0 0-261.954853 272.393155c5.119422 132.506604 112.660532 242.673911 244.86795 251.051147 53.188802 3.3243 545.750356 3.3243 598.872672 0 131.143641-8.211021 238.651508-117.547253 244.768221-248.890352a261.123777 261.123777 0 0 0-223.559186-271.695052 59.837403 59.837403 0 0 1-40.157545-24.566578 57.975795 57.975795 0 0 1-9.640471-45.07751 263.051871 263.051871 0 0 0 4.720506-63.660348c-6.382656-135.299016-117.447524-244.801463-252.846269-249.322512a262.021338 262.021338 0 0 0-270.664519 261.888367 262.619712 262.619712 0 0 0 7.911834 64.02602 43.215902 43.215902 0 0 1-42.118882 53.82042z m582.3509-61.034151l28.954655 5.751039z m-582.3509 1.99458z" fill="#0368f0" p-id="3624"></path><path d="M590.317953 728.569445h-1.495935c-128.883117-0.797832-221.697577-106.377605-225.587009-110.699195a29.526434 29.526434 0 0 1 44.578866-38.728097c1.362963 1.529178 80.18212 89.955562 181.772732 90.387722 59.571459 0.33243 116.716178-29.918701 170.137682-89.756105a30.384103 30.384103 0 0 1 40.988621-4.620777 29.519785 29.519785 0 0 1 3.955917 42.949958c-65.12304 73.334061-137.260353 110.466494-214.350874 110.466494z" fill="#0368f0" p-id="3625"></path></svg>